<?xml version="1.0" encoding="utf-8"?>
<!-- Generator: Adobe Illustrator 24.3.0, SVG Export Plug-In . SVG Version: 6.00 Build 0)  -->
<svg version="1.1" id="Layer_1" xmlns="http://www.w3.org/2000/svg" xmlns:xlink="http://www.w3.org/1999/xlink" x="0px" y="0px"
	 viewBox="0 0 166.3 199.1" style="enable-background:new 0 0 166.3 199.1;" xml:space="preserve">
<style type="text/css">
	.st0{fill:#E8E4D4;}
	.st1{fill:#F0F6FF;}
	.st2{fill:#BDAB84;}
	.st3{fill:#F0EEE3;}
	.st4{fill:#CFC59F;}
</style>
<g>
	<path class="st0" d="M83.1,199.1c-27.4,0-49.5-8.9-64-25.6C6.6,158.9,0,138.9,0,115.5c0-26.2,8.7-55,23.2-77.1
		C39.6,13.6,60.9,0,83.1,0s43.5,13.6,59.9,38.5c14.6,22.1,23.2,50.9,23.2,77.1c0,23.4-6.6,43.4-19.2,58
		C132.6,190.2,110.5,199.1,83.1,199.1z"/>
	<path class="st0" d="M83.1,8c74.7,0,122.8,183.1,0,183.1S8.5,8,83.1,8z"/>
	<path class="st1" d="M96.2,25c9.6-0.1,26.5,15.2,26.6,23.2c0.1,5.6-4,10.3-11.8,9.9c-11.3-0.5-22.6-20-22.3-26.5
		C88.8,27.9,91.7,25,96.2,25z"/>
	<path class="st1" d="M128.2,61.9c4.6,0.5,10.7,6.9,10.1,12.9c-0.4,3.6-3.7,6.1-7.2,5.7c-6.8-0.7-10.3-9.9-9.3-13.9
		C122.3,63.5,125.2,61.5,128.2,61.9z"/>
	<path class="st2" d="M19.1,127.9c3.4-4.1-0.7-22-3.7-22.7c-1.3-0.3-4.3,2.5-7.3,6.1c-0.2,6.1,0,12.2,0.8,18.3
		C13.1,130.2,17.5,129.9,19.1,127.9z"/>
	<path class="st2" d="M153.4,108.9c-2.5,0.9-5.8,27.5-2.9,28.7c1,0.4,3.4-0.9,6-2.9c1.5-7.9,2-15.9,1.6-23.9
		C156.4,109.3,154.7,108.4,153.4,108.9z"/>
	<path class="st2" d="M60.2,163.2c-2-4.1-14.6-5-18-4.5s-13.1,4.1-18.5,7.7c6.2,7.8,14.3,13.9,23.4,17.9
		C51.8,182.7,62.3,167.3,60.2,163.2z"/>
	<path class="st2" d="M102.1,144c1.5,3.5,8.9,8.4,13.8,7.7s19.4-16,17.1-19.4S100.1,139.4,102.1,144z"/>
	<path class="st2" d="M105.7,123.2c-1.6-2.4-17.3-2-17,1.1c0.4,3.5,5.2,8,11.5,7.3C102.5,131.3,107.3,125.6,105.7,123.2z"/>
	<path class="st2" d="M77.5,133.1c-2.2-1.9-13.5-0.5-14.9,2.2c-2.2,4.5-4.1,15.2,0,18.6s20.8,1.9,23.1-2.2S79.8,135,77.5,133.1z"/>
	<path class="st2" d="M65.6,118.6c3-1.5-0.2-15.6-4.5-15.2c-4.5,0.4-8.2,9.7-8.2,12.3S62.7,120.1,65.6,118.6z"/>
	<path class="st2" d="M66.8,171.6c-3,1.3-7.7,11.4-7.7,16.8c6.6,1.6,13.3,2.5,20.1,2.7C80.6,186.4,69.6,170.3,66.8,171.6z"/>
	<path class="st2" d="M133.2,108.8c-3.1-2-9.2,10.2-7.9,12s16.2,5.2,17.7,2.4S136.2,110.7,133.2,108.8z"/>
	<path class="st2" d="M29.9,128.2c-4.1,0.7-11.5,20.8-9.5,23.5s13.3,5.1,17.4,0S34,127.5,29.9,128.2z"/>
	<path class="st2" d="M110.3,158.6c-3-3.5-17.2,2.9-19.3,6.8c-1.7,3.2-3.1,18.7-1.5,25.4c10.1-0.4,20.1-2.6,29.4-6.5
		C118.9,176.7,112.7,161.5,110.3,158.6z"/>
	<path class="st2" d="M144.9,146.9c-3-1.1-17.8,10.1-18.6,12.6c-1.3,3.9-1.4,13.8,0.3,20.9c9.8-5.9,17.7-14.4,22.8-24.6
		C148.3,151.8,146.5,147.5,144.9,146.9z"/>
	<path class="st3" d="M17.9,66.1c-21.5,53.6-11.4,125,65.3,125c23.7,0,41-6.8,53-17.8c-4.7,0.5-9.6,0.7-14.8,0.7
		C44.9,174,16.5,122.5,17.9,66.1z"/>
	<path class="st4" d="M19.1,127.9c3.4-4.1-0.7-22-3.7-22.7c-1.3-0.3-4.3,2.5-7.3,6.1c-0.1,3.1-0.1,6.1,0,9.1c0,0.1,0,0.2,0,0.3
		c0.1,1.4,0.2,2.9,0.3,4.3v0.3c0.1,1.4,0.3,2.9,0.5,4.3l0,0C13.1,130.2,17.5,129.9,19.1,127.9z"/>
	<path class="st4" d="M60.2,163.2c-2-4.1-14.6-5-18-4.5s-13.1,4.1-18.4,7.7l0.1,0.1c1.4,1.8,3,3.5,4.6,5.1l0.2,0.2
		c1.7,1.6,3.5,3.2,5.3,4.6l0.2,0.1c0.9,0.7,1.8,1.4,2.8,2l0.2,0.1c1,0.7,2,1.3,3.1,2l0.2,0.1c1,0.6,2,1.1,3.1,1.7l0.3,0.2
		c1.1,0.6,2.2,1.1,3.4,1.6l0,0C51.8,182.7,62.3,167.3,60.2,163.2z"/>
	<path class="st4" d="M66.8,171.6c-3,1.3-7.7,11.4-7.6,16.8l0.3,0.1l1.6,0.4l0.9,0.2l1.7,0.4l0.4,0.1c1.3,0.2,2.6,0.4,4,0.6l0.7,0.1
		l1.9,0.2l0.9,0.1c0.7,0.1,1.3,0.1,2,0.2c0.2,0,0.5,0,0.7,0.1c1.6,0.1,3.2,0.2,4.8,0.3C80.6,186.4,69.6,170.3,66.8,171.6z"/>
	<path class="st4" d="M29.9,128.2c-4.1,0.7-11.5,20.8-9.5,23.5s13.3,5.1,17.4,0c2.4-3,0.7-11.1-2-16.9c-1.2-1.8-2.4-3.6-3.4-5.4
		C31.4,128.6,30.6,128.1,29.9,128.2z"/>
	<path class="st4" d="M89.6,170.6c-0.9,6.1-1.3,15.5-0.2,20.3h0.8c0.9-0.1,1.8-0.1,2.7-0.2l1.4-0.1c0.9-0.1,1.8-0.2,2.6-0.3l1.4-0.2
		c0.8-0.1,1.7-0.2,2.5-0.4l1.4-0.2c0.8-0.1,1.6-0.3,2.4-0.5l1.3-0.3c0.8-0.2,1.5-0.4,2.3-0.6l1.3-0.4c0.7-0.2,1.4-0.4,2.1-0.6
		l1.3-0.4c0.7-0.2,1.3-0.5,2-0.7c0.4-0.1,0.9-0.3,1.3-0.5l1.9-0.8l0.7-0.3c-0.1-3.6-0.8-7.1-1.9-10.5
		C107.7,173.8,98.6,172.6,89.6,170.6z"/>
	<path class="st4" d="M126.6,180.4c0.7-0.4,1.4-0.9,2.1-1.3l0.4-0.3c0.7-0.4,1.3-0.9,2-1.4l0.5-0.4c1.5-1.1,3-2.3,4.4-3.6l0.2-0.2
		c-3.4,0.3-6.9,0.5-10.6,0.6C125.8,176.1,126.1,178.3,126.6,180.4z"/>
</g>
</svg>
