<svg id="Layer_1" data-name="Layer 1" xmlns="http://www.w3.org/2000/svg" xmlns:xlink="http://www.w3.org/1999/xlink" viewBox="0 0 180.79 212.38"><defs><style>.cls-1{fill:url(#linear-gradient);}.cls-2{fill:#e8e4d4;}.cls-3{fill:url(#linear-gradient-2);}.cls-4{fill:url(#linear-gradient-3);}.cls-5{fill:url(#linear-gradient-4);}.cls-6{fill:url(#linear-gradient-5);}.cls-7{fill:url(#linear-gradient-6);}.cls-8{fill:url(#linear-gradient-7);}.cls-9{fill:url(#linear-gradient-8);}.cls-10{fill:url(#linear-gradient-9);}.cls-11{fill:url(#linear-gradient-10);}.cls-12{fill:url(#linear-gradient-11);}.cls-13{fill:url(#linear-gradient-12);}.cls-14{fill:url(#linear-gradient-13);}.cls-15{fill:url(#linear-gradient-14);}.cls-16{fill:url(#linear-gradient-15);}.cls-17{fill:url(#linear-gradient-16);}.cls-18{fill:url(#linear-gradient-17);}.cls-19{fill:url(#linear-gradient-18);}.cls-20{fill:url(#linear-gradient-19);}.cls-21{fill:url(#linear-gradient-20);}.cls-22{fill:url(#linear-gradient-21);}.cls-23{fill:url(#linear-gradient-22);}.cls-24{fill:url(#linear-gradient-23);}.cls-25{fill:url(#linear-gradient-24);}.cls-26{fill:url(#linear-gradient-25);}.cls-27{fill:url(#linear-gradient-26);}.cls-28{fill:url(#linear-gradient-27);}.cls-29{fill:url(#linear-gradient-28);}</style><linearGradient id="linear-gradient" x1="91.89" y1="213.86" x2="87.42" y2="7.35" gradientUnits="userSpaceOnUse"><stop offset="0" stop-color="#9fdb63"/><stop offset="1" stop-color="#20806c"/></linearGradient><linearGradient id="linear-gradient-2" x1="90.78" y1="2.57" x2="89.85" y2="78.44" xlink:href="#linear-gradient"/><linearGradient id="linear-gradient-3" x1="128.41" y1="15.55" x2="127.34" y2="102.94" xlink:href="#linear-gradient"/><linearGradient id="linear-gradient-4" x1="210.24" y1="15.55" x2="209.17" y2="102.94" gradientTransform="matrix(-1, 0, 0, 1, 261.3, 0)" xlink:href="#linear-gradient"/><linearGradient id="linear-gradient-5" x1="90.88" y1="38.15" x2="89.85" y2="122.33" xlink:href="#linear-gradient"/><linearGradient id="linear-gradient-6" x1="158.49" y1="59.3" x2="157.66" y2="127.17" gradientTransform="translate(-24.29 70.56) rotate(-22.34)" xlink:href="#linear-gradient"/><linearGradient id="linear-gradient-7" x1="145.58" y1="184.78" x2="142.97" y2="216.41" xlink:href="#linear-gradient"/><linearGradient id="linear-gradient-8" x1="280.19" y1="109.3" x2="279.36" y2="177.18" gradientTransform="matrix(-0.92, -0.38, -0.38, 0.92, 335.96, 70.56)" xlink:href="#linear-gradient"/><linearGradient id="linear-gradient-9" x1="17.38" y1="174.22" x2="14.77" y2="205.85" xlink:href="#linear-gradient"/><linearGradient id="linear-gradient-10" x1="136.69" y1="79.21" x2="135.85" y2="148.35" xlink:href="#linear-gradient"/><linearGradient id="linear-gradient-11" x1="46.76" y1="79.21" x2="45.92" y2="148.35" xlink:href="#linear-gradient"/><linearGradient id="linear-gradient-12" x1="90.88" y1="95.22" x2="89.85" y2="179.4" xlink:href="#linear-gradient"/><linearGradient id="linear-gradient-13" x1="159.53" y1="112.38" x2="158.7" y2="180.26" xlink:href="#linear-gradient"/><linearGradient id="linear-gradient-14" x1="303.2" y1="112.38" x2="302.37" y2="180.26" gradientTransform="matrix(-1, 0, 0, 1, 324.46, 0)" xlink:href="#linear-gradient"/><linearGradient id="linear-gradient-15" x1="12.09" y1="173.79" x2="9.49" y2="205.41" xlink:href="#linear-gradient"/><linearGradient id="linear-gradient-16" x1="159.42" y1="185.92" x2="156.82" y2="217.55" xlink:href="#linear-gradient"/><linearGradient id="linear-gradient-17" x1="91.81" y1="121.68" x2="91.06" y2="146.98" xlink:href="#linear-gradient"/><linearGradient id="linear-gradient-18" x1="125.44" y1="110.88" x2="123.21" y2="193.11" xlink:href="#linear-gradient"/><linearGradient id="linear-gradient-19" x1="56" y1="110.47" x2="56.38" y2="190.84" xlink:href="#linear-gradient"/><linearGradient id="linear-gradient-20" x1="80.77" y1="179.44" x2="78.17" y2="211.07" xlink:href="#linear-gradient"/><linearGradient id="linear-gradient-21" x1="85.4" y1="179.82" x2="82.8" y2="211.45" xlink:href="#linear-gradient"/><linearGradient id="linear-gradient-22" x1="120.92" y1="182.75" x2="118.32" y2="214.38" xlink:href="#linear-gradient"/><linearGradient id="linear-gradient-23" x1="129.83" y1="183.5" x2="127.22" y2="215.12" xlink:href="#linear-gradient"/><linearGradient id="linear-gradient-24" x1="51.61" y1="177.04" x2="49" y2="208.67" xlink:href="#linear-gradient"/><linearGradient id="linear-gradient-25" x1="39.92" y1="176.08" x2="37.32" y2="207.7" xlink:href="#linear-gradient"/><linearGradient id="linear-gradient-26" x1="77.65" y1="179.18" x2="75.05" y2="210.81" xlink:href="#linear-gradient"/><linearGradient id="linear-gradient-27" x1="111.81" y1="182" x2="109.2" y2="213.63" xlink:href="#linear-gradient"/><linearGradient id="linear-gradient-28" x1="44.81" y1="176.48" x2="42.2" y2="208.11" xlink:href="#linear-gradient"/></defs><path class="cls-1" d="M90.05,212.38c-27.39,0-49.51-8.85-64-25.6C13.54,172.25,6.91,152.21,6.91,128.83c0-26.18,8.69-55,23.25-77.07C46.52,27,67.79,13.31,90.05,13.31S133.59,27,149.94,51.76c14.56,22.07,23.25,50.89,23.25,77.07,0,23.38-6.63,43.42-19.17,57.95C139.56,203.53,117.44,212.38,90.05,212.38Z"/><path class="cls-2" d="M90.05,21.31c74.67,0,122.85,183.07,0,183.07S15.38,21.31,90.05,21.31Z"/><path class="cls-3" d="M118.28,32.71C107.5,18.14,101.86,2.56,90.05,2.56S72.6,18.14,61.82,32.71s-6.16,43.83-6.16,43.83h68.78S129.06,47.28,118.28,32.71Z"/><path class="cls-4" d="M100.1,64.7c3-15.49,17.11-48.74,29.39-49.12s2.61,11.17,9.57,29.4c5.2,13.64,10.53,16,15.74,35.72s-33.12,20.46-33.12,20.46Z"/><path class="cls-5" d="M79.38,64.7C76.4,49.21,62.26,16,50,15.58S47.38,26.75,40.42,45C35.21,58.62,29.89,61,24.68,80.7s33.11,20.46,33.11,20.46Z"/><path class="cls-6" d="M118.28,76.44c-10.78-14.57-16.42-38.3-28.23-38.3S72.6,61.87,61.82,76.44s-6.16,43.83-6.16,43.83h68.78S129.06,91,118.28,76.44Z"/><path class="cls-7" d="M141,109.6c-2.59-18.53,7.59-49.38,19-50s-1.71,6.62,3,29.94c3.42,16.74,2.71,28-1.08,38.89s-20.33-17.28-20.33-17.28"/><path class="cls-8" d="M142.52,89.26c2.23-15.82,10-30.34,18.41-30.89s5.66,5.07,3.35,11.74S163,89.5,163,89.5s-3.73-8.43-2.06-16.61,3.73-8.67,1.49-9.64-5.95.33-11.35,9.08A115.32,115.32,0,0,0,142.52,89.26Z"/><path class="cls-9" d="M39.14,109.6c2.59-18.53-7.59-49.38-19-50s1.7,6.62-3.05,29.94c-3.41,16.74-2.7,28,1.09,38.89s20.32-17.28,20.32-17.28"/><path class="cls-10" d="M37.57,89.26c-2.24-15.82-10-30.34-18.42-30.89s-5.66,5.07-3.35,11.74S17.09,89.5,17.09,89.5s3.73-8.43,2.06-16.61-3.72-8.67-1.49-9.64,5.95.33,11.35,9.08A116,116,0,0,1,37.57,89.26Z"/><path class="cls-11" d="M159.2,110.66C150.35,98.7,145.71,79.2,136,79.2s-14.34,19.5-23.19,31.46-5.06,36-5.06,36h56.49S168.05,122.63,159.2,110.66Z"/><path class="cls-12" d="M69.27,110.66C60.42,98.7,55.78,79.2,46.09,79.2S31.75,98.7,22.9,110.66s-5.06,36-5.06,36H74.33S78.12,122.63,69.27,110.66Z"/><path class="cls-13" d="M118.28,133.51c-10.78-14.57-16.42-38.3-28.23-38.3s-17.45,23.73-28.23,38.3-6.16,43.83-6.16,43.83h68.78S129.06,148.08,118.28,133.51Z"/><path class="cls-14" d="M139.06,152c4.64-18.13,25.78-42.8,36.57-39.08s-4.09,5.48-8.56,28.85c-3.2,16.78-8.13,26.9-15.78,35.56s-12.23-23.71-12.23-23.71"/><path class="cls-15" d="M41.73,152c-4.64-18.13-25.79-42.8-36.58-39.08s4.1,5.48,8.56,28.85c3.21,16.78,8.13,26.9,15.79,35.56s12.23-23.71,12.23-23.71"/><path class="cls-16" d="M32.48,132.87c-7.62-14-20-24.91-28-22.51s-3.53,6.73,1,12.18,8,17.71,8,17.71.56-9.2-3.87-16.28S3,117.15,4.74,115.46s5.69-1.77,13.8,4.54A116.19,116.19,0,0,1,32.48,132.87Z"/><path class="cls-17" d="M148.32,132.87c7.62-14,20-24.91,28.05-22.51s3.52,6.73-1,12.18-8,17.71-8,17.71-.55-9.2,3.88-16.28,6.51-6.82,4.76-8.51-5.7-1.77-13.81,4.54A115.6,115.6,0,0,0,148.32,132.87Z"/><path class="cls-18" d="M40.55,189.57c11.79,9.22,28,14.81,49.5,14.81,21.17,0,37.25-5.43,49-14.43Z"/><path class="cls-19" d="M152.66,149.24c-10.78-14.57-16.43-38.3-28.23-38.3S107,134.67,96.19,149.24,90,193.07,90,193.07h44.52a61.73,61.73,0,0,0,24-28.81C157.55,158.74,155.73,153.39,152.66,149.24Z"/><path class="cls-20" d="M83.91,149.24c-10.78-14.57-16.43-38.3-28.23-38.3s-17.46,23.73-28.24,38.3c-3.07,4.15-4.89,9.5-5.92,15a61.73,61.73,0,0,0,24,28.81H90.07S94.69,163.81,83.91,149.24Z"/><path class="cls-21" d="M70.35,61.91c4.09-8,8.17-23.77,19.7-23.77s12.54,11.92,20.39,25.11c0,0-11.58-20.88-20.39-20.88S70.35,61.91,70.35,61.91Z"/><path class="cls-22" d="M70.35,118.56c4.09-8,8.17-23.78,19.7-23.78s12.54,11.92,20.39,25.12c0,0-11.58-20.88-20.39-20.88S70.35,118.56,70.35,118.56Z"/><path class="cls-23" d="M104.7,134.78c4.09-8,8.85-23.84,20.38-23.84s12,12.14,19.85,25.34c0,0-11-21.1-19.85-21.1S104.7,134.78,104.7,134.78Z"/><path class="cls-24" d="M117.49,103.2c4.09-8,7.92-24.78,19.45-24.78s10.5,12.91,18.34,26.1c0,0-9.52-21.87-18.34-21.87S117.49,103.2,117.49,103.2Z"/><path class="cls-25" d="M75.14,134.78c-4.09-8-8.85-23.84-20.39-23.84s-12,12.14-19.84,25.34c0,0,11-21.1,19.84-21.1S75.14,134.78,75.14,134.78Z"/><path class="cls-26" d="M64.88,103.68c-4.1-8-8.5-25.26-20-25.26s-13.5,14.33-18,26.1c0,0,9.21-21.87,18-21.87S64.88,103.68,64.88,103.68Z"/><path class="cls-27" d="M67.73,23.77C72.35,15.76,77,0,90,0s14.18,11.92,23,25.11c0,0-13.09-20.88-23-20.88S67.73,23.77,67.73,23.77Z"/><path class="cls-28" d="M107.31,42.83c7.67-18.82,16-31.17,26.28-27.26S133,27.86,139.06,45c0,0-3.8-2.79-4.36-10.79s1-11.87-2.23-13.77C127.69,17.63,114.51,27.29,107.31,42.83Z"/><path class="cls-29" d="M72.16,42.83C64.48,24,56.11,11.66,45.88,15.57s.6,12.29-5.47,29.41c0,0,3.8-2.79,4.35-10.79s-1-11.87,2.24-13.77C51.78,17.63,65,27.29,72.16,42.83Z"/></svg>