<svg id="Layer_1" data-name="Layer 1" xmlns="http://www.w3.org/2000/svg" viewBox="0 0 166.28 199.07"><defs><style>.cls-1{fill:#e8e4d4;}.cls-2{fill:#f0eee3;}.cls-3{fill:#20806c;}.cls-4{fill:#f0f6ff;}.cls-5{fill:#36a38d;}</style></defs><path class="cls-1" d="M83.14,199.07c-27.39,0-49.51-8.85-64-25.6C6.63,158.94,0,138.9,0,115.52c0-26.19,8.69-55,23.25-77.07C39.61,13.65,60.88,0,83.14,0S126.68,13.65,143,38.45c14.56,22.07,23.25,50.88,23.25,77.07,0,23.38-6.63,43.42-19.17,58C132.65,190.22,110.53,199.07,83.14,199.07Z"/><path class="cls-1" d="M83.14,8c74.67,0,122.85,183.07,0,183.07S8.47,8,83.14,8Z"/><path class="cls-2" d="M17.88,66.07c-21.47,53.62-11.45,125,65.26,125,23.67,0,41-6.8,53-17.77q-7.06.69-14.79.69C44.87,174,16.51,122.51,17.88,66.07Z"/><path class="cls-3" d="M150.51,71.66c-5,3.39-15.3,9.79-20.51,9.57-7.08-.31-19.72-10.12-26.41-21.4-5.7-9.58,1.51-37.17,3.8-45.25C126.3,25,141.77,46.83,150.51,71.66Zm3,9.57c-3.31,2.42-15,11.54-16.23,21-1.49,11-.47,31.44,3.39,36.09,2.81,3.38,9.47,6.37,12.9,7.75C160.22,126.49,159.5,103.13,153.49,81.23ZM90.2,122.69c1.82,7.08,21.92,15.41,26.87,9.05s6.82-37.58-1.26-40.71C107.09,87.65,88.37,115.61,90.2,122.69Zm-82.2-8c10,.7,26.69,1.4,33.26-1.06,9.67-3.63,24-30.42,23.63-40.47-.3-8-20.18-30.72-28.16-39.52C19.37,54.71,8.22,85.73,8,114.68Zm30,45c4.41.19,9.38-8.33,10.05-11s-3.38-13.92-6.21-15.73-15.3,1.46-17.71,5C22.2,140.82,33.6,159.47,38,159.67Zm63.24-16.85c-9-2-34.09,10.09-36.69,19.57-1.63,6,.62,18.81,2.52,27.52a106.66,106.66,0,0,0,16.06,1.16c17.25,0,31.13-3.61,42-9.82.33-5,.77-14.57-.22-18.56C123.57,157.19,110.27,144.81,101.25,142.82Z"/><path class="cls-4" d="M102.75,22.52c9.52,1.05,24.46,18.33,23.58,26.25-.62,5.55-5.24,9.73-12.94,8.41-11.14-1.91-20-22.54-18.93-29C95.08,24.55,98.26,22,102.75,22.52Z"/><path class="cls-5" d="M121.33,174c-23,0-41.59-4.65-56.37-12.68a7.87,7.87,0,0,0-.4,1.08c-1.63,6,.62,18.8,2.52,27.52l.74.1c.84.12,1.68.23,2.54.33l1.25.14c.81.08,1.63.16,2.45.22.44,0,.88.08,1.32.1q1.31.09,2.64.15l1.2.05c1.29,0,2.59.07,3.92.07s2.63,0,3.91-.07l1.1-.05c1,0,2-.09,2.92-.16l1-.06c1.23-.1,2.45-.21,3.64-.35l.58-.07c1-.12,2-.26,3-.41l1-.15c1-.16,1.93-.33,2.88-.52l.54-.1c1.13-.23,2.23-.48,3.32-.74l.64-.17c.89-.23,1.77-.47,2.63-.72l.73-.21c2.1-.64,4.13-1.34,6.07-2.12l.55-.23c.84-.34,1.67-.7,2.48-1.07l.42-.19c1.64-.77,3.2-1.59,4.72-2.45.12-1.94.26-4.57.33-7.29C124.13,174,122.74,174,121.33,174Z"/><path class="cls-5" d="M24.14,137.94C22.2,140.82,33.6,159.47,38,159.67c4.17.18,8.84-7.44,9.9-10.55A83.71,83.71,0,0,1,34.44,133C30.17,134,25.52,135.9,24.14,137.94Z"/><path class="cls-5" d="M25.58,115.34c-5.73-15.06-8.12-31.92-7.7-49.26q-1,2.53-1.94,5.11l-.12.36q-.4,1.13-.78,2.25c-.08.26-.16.52-.25.77l-.6,1.86-.27.91c-.18.58-.36,1.15-.52,1.73l-.29,1c-.15.55-.31,1.1-.46,1.65-.1.36-.19.72-.28,1.08-.14.53-.28,1.06-.41,1.6-.1.37-.18.74-.27,1.11-.13.52-.26,1-.38,1.57s-.16.76-.25,1.14-.23,1-.33,1.56-.16.77-.23,1.16-.21,1-.31,1.55L10,93.67c-.09.51-.18,1-.26,1.54s-.13.79-.19,1.18-.16,1-.23,1.53-.11.79-.17,1.19-.13,1-.2,1.53-.09.79-.13,1.19-.12,1-.17,1.52-.08.8-.11,1.19-.09,1-.13,1.53-.06.79-.09,1.18-.07,1-.1,1.53L8.14,110c0,.51-.05,1-.06,1.53s0,.78,0,1.17l0,1.52v.51C12.93,115,19.44,115.37,25.58,115.34Z"/></svg>