<svg id="Layer_1" data-name="Layer 1" xmlns="http://www.w3.org/2000/svg" viewBox="0 0 43.88 40.86"><defs><style>.cls-1{fill:#e8e7e4;}.cls-2{fill:#081d2a;}</style></defs><path class="cls-1" d="M0,18.91C0,9.91,5.26,0,21.84,0s22,10.94,22,18.91Z"/><path class="cls-1" d="M21.94,17.22C15.78,17.22,0,10.51,0,18.65c0,8.89,1.38,11.23,4.33,12.94a17.14,17.14,0,0,0,3.59,1.5,3,3,0,0,1,.5.14c.27.08.54.14.82.21a4.9,4.9,0,0,0,4.25-1.59l-.21,2.3h0l-.78,5.22,3.69,1.08.75-3,2.36.33,0,3h5.09v-3l2.36-.33.74,3,3.93-1.08-.79-5.23h0l-.21-2.29a4.94,4.94,0,0,0,4,1.63,19.07,19.07,0,0,0,5.14-1.89c3-1.7,4.33-4.05,4.33-12.94C43.88,10.76,27.86,17.22,21.94,17.22Z"/><circle class="cls-1" cx="9.5" cy="25.12" r="8.84"/><circle class="cls-1" cx="34.44" cy="25.12" r="8.84"/><path class="cls-2" d="M25,33.87c.4-1.9-1.66-7.11-3.09-7.11S18.46,32,18.86,33.87c.19.9,2.16,1.16,3.08,1.16S24.84,34.77,25,33.87Z"/><circle class="cls-2" cx="33.1" cy="21.16" r="7.79"/><circle class="cls-2" cx="10.68" cy="21.16" r="7.79"/></svg>