<svg id="Layer_1" data-name="Layer 1" xmlns="http://www.w3.org/2000/svg" xmlns:xlink="http://www.w3.org/1999/xlink" viewBox="0 0 43.88 38.45"><defs><style>.cls-1{fill:url(#linear-gradient);}.cls-2{fill:#e8e7e4;}.cls-3{fill:url(#linear-gradient-2);}.cls-4{fill:#081d2a;}.cls-5{fill:#264b61;}.cls-6{fill:#1b3a4d;}</style><linearGradient id="linear-gradient" x1="22.24" y1="9.42" x2="21.75" y2="33.49" gradientUnits="userSpaceOnUse"><stop offset="0" stop-color="#d1bab0"/><stop offset="1" stop-color="#ba9688"/></linearGradient><linearGradient id="linear-gradient-2" x1="22.03" y1="8.23" x2="21.43" y2="37.5" xlink:href="#linear-gradient"/></defs><path class="cls-1" d="M3.52,24c.86,6.85,5.3,10,18.24,10s17.62-4,18.61-10l-8.51,2.95-10-5.64-6.41,5.64Z"/><path class="cls-2" d="M2.47,13.64C2.47,7.15,7.14,0,21.85,0S41.41,7.89,41.41,13.64Z"/><path class="cls-3" d="M10.45,10.79c0-4,4.87-1.51,11.34-1.48S33.5,6.82,33.5,10.79c0,3-11.83,4.12-11.83,4.12Z"/><path class="cls-2" d="M21.94,12.81C15.78,12.81,0,6.1,0,14.24c0,8.89,1.38,11.23,4.33,12.94a17.14,17.14,0,0,0,3.59,1.5,4.52,4.52,0,0,1,.5.14c.27.08.54.15.82.21a4.9,4.9,0,0,0,4.25-1.59l-.21,2.3h0L12.5,37,16.19,38l.75-3,2.36.33,0,3h5.09v-3l2.36-.33.74,3L31.39,37l-.79-7.23h0l-.21-2.29a5,5,0,0,0,4,1.64,19.41,19.41,0,0,0,5.14-1.9c3-1.7,4.33-4.05,4.33-12.94C43.88,6.35,27.86,12.81,21.94,12.81Z"/><path class="cls-4" d="M25.52,29.62c-2.35-3.32-2.75-7.21-3.65-7.24h0c-.9,0-1.3,3.92-3.65,7.24-.4.56.21,1.27.66,1.62.71.56,2.1-.07,3-.08s2.29.64,3,.08C25.31,30.89,25.91,30.18,25.52,29.62Z"/><path class="cls-4" d="M26.29,20.82c0-2.26,7.5-5.66,10.86-6,2.2-.21,3.21,3.52,2.8,5.48s-1.72,4.38-6.87,5.37C28.86,26.49,26.29,23.4,26.29,20.82Z"/><path class="cls-4" d="M17.43,20.82c0-2.26-7.5-5.66-10.86-6-2.2-.21-3.21,3.52-2.8,5.48s1.71,4.38,6.87,5.37C14.85,26.49,17.43,23.4,17.43,20.82Z"/><circle class="cls-5" cx="33.34" cy="20.34" r="2.91"/><path class="cls-6" d="M33.34,17.43a2.91,2.91,0,0,0-2.91,2.91c0,.1,0,.2,0,.31a44.76,44.76,0,0,1,5-2.24A2.87,2.87,0,0,0,33.34,17.43Z"/><circle class="cls-5" cx="10.33" cy="20.34" r="2.91"/><path class="cls-6" d="M10.33,17.43a2.91,2.91,0,0,1,2.91,2.91,1.76,1.76,0,0,1,0,.31,44,44,0,0,0-5-2.24A2.9,2.9,0,0,1,10.33,17.43Z"/></svg>