<svg id="Layer_1" data-name="Layer 1" xmlns="http://www.w3.org/2000/svg" xmlns:xlink="http://www.w3.org/1999/xlink" viewBox="0 0 246.04 228.05"><defs><style>.cls-1{fill:#fff;}.cls-2{fill:#efede2;}.cls-3{fill:#ddd6bb;}.cls-4{fill:#45adf8;}.cls-5{fill:#e7e3d3;}.cls-6{fill:#2c7bef;}.cls-7{fill:url(#linear-gradient);}.cls-8{fill:#0397ef;}.cls-9{fill:url(#linear-gradient-2);}.cls-10{fill:url(#linear-gradient-3);}.cls-11{fill:url(#linear-gradient-4);}</style><linearGradient id="linear-gradient" x1="122.92" y1="28.41" x2="124.24" y2="210.72" gradientUnits="userSpaceOnUse"><stop offset="0" stop-color="#4485e7"/><stop offset="1" stop-color="#295de0"/></linearGradient><linearGradient id="linear-gradient-2" x1="95.37" y1="132.56" x2="95.38" y2="132.79" gradientUnits="userSpaceOnUse"><stop offset="0" stop-color="#efede2" stop-opacity="0.4"/><stop offset="1" stop-color="#ddd6bb"/></linearGradient><linearGradient id="linear-gradient-3" x1="124.02" y1="57.82" x2="121.79" y2="204.06" gradientUnits="userSpaceOnUse"><stop offset="0" stop-color="#b6cae2"/><stop offset="1" stop-color="#5888dd"/></linearGradient><linearGradient id="linear-gradient-4" x1="41.99" y1="174.78" x2="205.4" y2="174.78" xlink:href="#linear-gradient-3"/></defs><path class="cls-1" d="M161.71,228.05c-12.36,0-25.36-3.14-38.69-9.34-13.34,6.2-26.33,9.34-38.69,9.34-20.13,0-38.5-8.38-53.13-24.24C18.54,190.09,9.14,171.45,4,149.92c-5.22-22-5.37-44.82-.43-64.32C9,64.3,19.36,47.6,35.18,40.18c1.83-.86,4.77-2.26,7.75-2.26,6.15,0,14.22,3.57,24.67,10.93a208.94,208.94,0,0,1,27.76,24c6.83,7,19.44,20.8,27.66,35.54,8.22-14.74,20.83-28.57,27.66-35.54a208.94,208.94,0,0,1,27.76-24c10.45-7.36,18.52-10.93,24.67-10.93a13.47,13.47,0,0,1,7.77,2.27c14.66,9.51,26.17,24.13,31.56,45.42,4.95,19.5,4.8,42.35-.43,64.33-5.11,21.53-14.51,40.16-27.17,53.88-14.63,15.85-33,24.23-53.12,24.23Z"/><path class="cls-2" d="M205.36,46.32l.07.11-.07-.11c-14.15-5.94-82.23,55.83-82.23,86.86,0,1.36-.08,3-.22,4.73v-4.73c0-31-68.08-92.8-82.23-86.86l-.07.11.07-.11C-26,79.9,13.3,265.08,123,209.83,232.74,265.08,272.05,79.9,205.36,46.32Z"/><path class="cls-3" d="M205.36,46.32c-14.15-5.94-82.23,55.83-82.23,86.86S232.79,87.1,232.79,87.1Z"/><path class="cls-3" d="M40.68,46.32c14.15-5.94,82.23,55.83,82.23,86.86S13.25,87.1,13.25,87.1Z"/><path class="cls-4" d="M136.46,4.22c0-2.33-5.72-4.22-12.78-4.22S110.9,1.89,110.9,4.22v8.49a72.68,72.68,0,0,1,25.56,0Z"/><path class="cls-5" d="M107.5,15.09c-5-1.56-26,8-32.93,23s45.76-16.75,45.76-16.75Z"/><path class="cls-5" d="M139.89,15.09c5-1.56,26,8,32.93,23s-45.77-16.75-45.77-16.75Z"/><path class="cls-6" d="M139.87,10.46c0-3-7.25-5.35-16.19-5.35s-16.18,2.4-16.18,5.35V25.07a92.15,92.15,0,0,1,32.37,0Z"/><path class="cls-7" d="M123.68,26.7c74.68,0,122.85,183.07,0,183.07S49,26.7,123.68,26.7Z"/><polygon class="cls-8" points="123.56 20.96 123.57 21.24 123.62 21.1 123.56 20.96"/><path class="cls-3" d="M139.89,26.35l-16.2-5.29L107.5,26.35A36.34,36.34,0,0,0,105.21,35c-1.1,7.2,38.06,7.18,37,0A36.81,36.81,0,0,0,139.89,26.35Z"/><path class="cls-9" d="M95.44,132.79l-.12-.23A.33.33,0,0,0,95.44,132.79Z"/><path class="cls-10" d="M165.85,83.33s3,.69,3.45-.14.9-4.13-6.16-11.85S142.7,60.59,142.7,60.59s5.56-1.51,6-2.2,0-3-13.08-3.59a51.75,51.75,0,0,0-23.14,4.51c3.76-3.76.75-4.51.75-4.51-35.77,8.41-28.55,46-20.44,52.37,0,0,.9,5.52.6,7.17s-4.35.69-3.9,3.17,18.78,4.69,21.34,2.21,2.55-14.89,11-23.16,2.7-11.71,2.7-11.71c17.88-.57,20.38,15.06,18.67,30.23-3.73-5-10.12-12.84-12.81-12.18-3.91,1-14.58,5.84-15.33,16.08s4.66,16.45,12.18,14.38,3.94-6.62,3.94-6.62-4.55,1.52-6.35-1.93c0,0,4.58,1.28,6.35-1.36,0,0-5.07-2.63-.67-7.46,0,0,.93,13.83,8.37,19.27-1.36,4.54-2.48,7.47-2.48,7.47s-2.25-6.48-14-5c-10.35,1.34-14.73,9.63-15.61,11.55,5.89-13.28,1.38-26.57-9-25.87s-9,8.26-9,8.26c2.1-2.21,5.56-.14,5.56-.14a2.79,2.79,0,0,0-1.49,4.18c0-.22.56-.46,3.74.09,4.81.83-.6,6.75-.6,6.75s-.15-6.2-7.06-6.75-5.86,2.89-5.86,2.89a14.15,14.15,0,0,1,4,1.38C82,140,81.54,144,81.54,144c2.71,0,4.36.14,7.67,4,2.2,2.57-2.42,9.88-5,16.38-22.45-14-11.72-62.29-2.69-72.79C77.65,88.71,58.1,99,58.1,138.26c0,33.83,17.89,42.57,42.49,50,3.82,1.79,10.84,19.87,10.84,19.87,9,2.57,14,3.66,14.92,1.73,19.78-.8,50.21-24.6,57.76-49.58C197.73,115.2,165.85,83.33,165.85,83.33Z"/><path class="cls-11" d="M123.69,188.1C76,188.1,50.92,163.79,42,131.78c-1.36,44.87,20.93,86,81.65,86s83-41.12,81.65-86C196.46,163.79,171.44,188.1,123.69,188.1Z"/><polygon class="cls-1" points="105.38 216.88 123.02 218.71 140.63 216.87 123.02 209.83 105.38 216.88"/><path class="cls-5" d="M132.63,15.09c-1.42-4.31-16.46-4.31-17.88,0-1.86,5.65-5.58,23-3.85,30.81s12.78,13.4,12.78,13.4V59l0,.28s11-5.58,12.78-13.4S134.49,20.74,132.63,15.09Z"/><path class="cls-2" d="M123,209.83C13.3,265.08-26,79.9,40.68,46.32c0,0-22.13,29.16,82.34,163.51"/><path class="cls-2" d="M123,209.83C227.48,75.48,205.36,46.32,205.36,46.32,272.05,79.9,232.74,265.08,123,209.83"/></svg>