<svg id="Layer_1" data-name="Layer 1" xmlns="http://www.w3.org/2000/svg" xmlns:xlink="http://www.w3.org/1999/xlink" viewBox="0 0 43.88 38.45"><defs><style>.cls-1{fill:url(#linear-gradient);}.cls-2{fill:#e8e7e4;}.cls-3{fill:url(#linear-gradient-2);}.cls-4{fill:url(#linear-gradient-3);}.cls-5{fill:#081d2a;}.cls-6{fill:url(#linear-gradient-4);}.cls-7{fill:#6dd1ff;}.cls-8{fill:#328ab3;}</style><linearGradient id="linear-gradient" x1="22.24" y1="9.42" x2="21.75" y2="33.49" gradientUnits="userSpaceOnUse"><stop offset="0" stop-color="#d1bab0"/><stop offset="1" stop-color="#ba9688"/></linearGradient><linearGradient id="linear-gradient-2" x1="25.19" y1="18.61" x2="29.4" y2="18.61" xlink:href="#linear-gradient"/><linearGradient id="linear-gradient-3" x1="35.88" y1="18.61" x2="40.09" y2="18.61" gradientTransform="matrix(-1, 0, 0, 1, 54.59, 0)" xlink:href="#linear-gradient"/><linearGradient id="linear-gradient-4" x1="22.02" y1="8.82" x2="21.43" y2="37.23" xlink:href="#linear-gradient"/></defs><path class="cls-1" d="M3.52,24c.86,6.85,5.3,10,18.24,10s17.62-4,18.61-10l-8.51,2.95-10-5.64-6.41,5.64Z"/><path class="cls-2" d="M2.47,13.64C2.47,7.15,7.14,0,21.85,0S41.41,7.89,41.41,13.64Z"/><path class="cls-2" d="M21.94,14.05C19.39,14.05,0,4.9,0,14.24c0,8.89,1.38,11.23,4.33,12.94a17.14,17.14,0,0,0,3.59,1.5,4.52,4.52,0,0,1,.5.14c.27.08.54.15.82.21a4.9,4.9,0,0,0,4.25-1.59l-.21,2.3h0L12.5,37,16.19,38l.75-3,2.36.33,0,3h5.09v-3l2.36-.33.74,3L31.39,37l-.79-7.23h0l-.21-2.29a5,5,0,0,0,4,1.64,19.41,19.41,0,0,0,5.14-1.9c3-1.7,4.33-4.05,4.33-12.94C43.88,4.9,25.07,14.05,21.94,14.05Z"/><path class="cls-3" d="M25.67,20.77c-.41-1.14-.79-3.44-.09-4.06,1.13-1,1.94,1.18,3.51.85S25.67,20.77,25.67,20.77Z"/><path class="cls-4" d="M18.22,20.77c.42-1.14.8-3.44.1-4.06-1.13-1-1.94,1.18-3.52.85S18.22,20.77,18.22,20.77Z"/><path class="cls-5" d="M26.15,19.09l9.7-5c3.53-1.87,4,3.72,4,5.94,0,1.78-1.18,5-6.87,5S24.28,20.2,26.15,19.09Z"/><path class="cls-5" d="M17.73,19.09l-9.7-5c-3.52-1.87-4,3.72-4,5.94,0,1.78,1.18,5,6.87,5S19.61,20.2,17.73,19.09Z"/><path class="cls-5" d="M25.73,28.79c-2.41-3.41-2.82-7.41-3.75-7.44h0c-.93,0-1.34,4-3.75,7.44-.41.58.21,1.3.68,1.67.72.57,2.15-.94,3.08-.94s2.35,1.51,3.07.94C25.52,30.09,26.14,29.37,25.73,28.79Z"/><path class="cls-6" d="M21.94,15.31c1.5,0,6.61-2.72,11.52-4.53-.6-4.08-8.51.73-11.56.73s-10.79-5.09-11.41-.78C15.51,12.53,20.7,15.31,21.94,15.31Z"/><path class="cls-7" d="M36.44,13.8a4.71,4.71,0,0,0-.59.25l-8.06,4.19h0S31,21.88,34.42,19.5A4.83,4.83,0,0,0,36.44,13.8Z"/><path class="cls-7" d="M7.45,13.8a4.71,4.71,0,0,1,.59.25l8.06,4.19h0s-3.16,3.64-6.63,1.26A4.82,4.82,0,0,1,7.45,13.8Z"/><path class="cls-8" d="M36.7,15.49a5.81,5.81,0,0,0-.26-1.69,4.71,4.71,0,0,0-.59.25l-8.06,4.19h0a7,7,0,0,0,1.2,1Z"/><path class="cls-8" d="M7.19,15.49a5.18,5.18,0,0,1,.26-1.69,4.71,4.71,0,0,1,.59.25l8.06,4.19h0a7.37,7.37,0,0,1-1.21,1Z"/></svg>