<svg id="Layer_1" data-name="Layer 1" xmlns="http://www.w3.org/2000/svg" viewBox="0 0 68.43 68.43"><title>gem</title><polygon points="55.45 68.43 68.43 55.45 68.43 12.98 55.45 0 12.98 0 0 12.98 0 55.45 12.98 68.43 55.45 68.43" style="fill:#00e403"/><polygon points="49.61 58.29 19.2 58.29 12.98 68.43 12.98 68.43 55.43 68.43 55.43 68.4 49.61 58.29" style="fill:#009903"/><polygon points="49.16 58.29 58.29 49.16 58.29 19.27 49.16 10.14 19.27 10.14 10.14 19.27 10.14 49.16 19.27 58.29 49.16 58.29" style="fill:#00ff03"/><polygon points="12.98 68.43 19.27 58.29 10.14 49.16 0 55.45 12.98 68.43" style="fill:#00bd02"/><polygon points="0 12.98 10.14 19.27 19.27 10.14 12.98 0 0 12.98" style="fill:#00d402"/><polygon points="55.45 68.43 49.16 58.29 58.29 49.16 68.43 55.45 55.45 68.43" style="fill:#00bd02"/><polygon points="68.43 12.98 58.29 19.27 49.16 10.14 55.45 0 68.43 12.98" style="fill:#82ff83"/></svg>