<svg id="Layer_1" data-name="Layer 1" xmlns="http://www.w3.org/2000/svg" xmlns:xlink="http://www.w3.org/1999/xlink" viewBox="0 0 43.88 42.86"><defs><style>.cls-1{fill:#e8e7e4;}.cls-2{fill:#081d2a;}.cls-3{fill:url(#linear-gradient);}</style><linearGradient id="linear-gradient" x1="22" y1="6.86" x2="21.57" y2="27.65" gradientUnits="userSpaceOnUse"><stop offset="0" stop-color="#d1bab0"/><stop offset="1" stop-color="#ba9688"/></linearGradient></defs><path class="cls-1" d="M21.75,16.65c-6.16,0-21.75-6.14-21.75,2,0,8.89,1.38,11.23,4.33,12.94a17.14,17.14,0,0,0,3.59,1.5,3,3,0,0,1,.5.14c.27.08.54.14.82.21a4.9,4.9,0,0,0,4.25-1.59l-.21,2.3h0l-.78,7.22,3.69,1.08.75-3,2.36.33,0,3h5.09v-3l2.36-.33.74,3,3.93-1.08-.79-7.23h0l-.21-2.29a4.94,4.94,0,0,0,4,1.63,19.07,19.07,0,0,0,5.14-1.89c3-1.7,4.33-4.05,4.33-12.94C43.88,10.76,27.67,16.65,21.75,16.65Z"/><circle class="cls-1" cx="9.5" cy="25.12" r="8.84"/><circle class="cls-1" cx="34.44" cy="25.12" r="8.84"/><path class="cls-2" d="M25,33.87c.4-1.9-1.66-7.11-3.09-7.11S18.46,32,18.86,33.87c.19.9,2.16,1.16,3.08,1.16S24.84,34.77,25,33.87Z"/><path class="cls-1" d="M2.47,17.17C2.47,9,7.14,0,21.86,0S41.42,9.93,41.42,17.17Z"/><path class="cls-3" d="M22,7.74c-2.48,0-8.14-1.56-7.53.16s4.2,3.7,7.52,3.71h0c3.32,0,6.92-2,7.52-3.71S24.45,7.73,22,7.74Z"/><path class="cls-2" d="M25.66,23.86c-.08-1.39.11-3.65,1.64-3.88,2.3-.35,5.86-.77,9.22-1.1,2.2-.22,2.81,3.89,2.81,5.89,0,1.77-1.18,5-6.88,5C27.14,29.73,25.8,26.45,25.66,23.86Z"/><path class="cls-2" d="M18.23,23.86c.07-1.39-.12-3.65-1.65-3.88-2.3-.35-5.85-.77-9.22-1.1-2.2-.22-2.81,3.89-2.81,5.89,0,1.77,1.19,5,6.88,5C16.75,29.73,18.08,26.45,18.23,23.86Z"/></svg>