
<svg
            className="w-4 h-4 text-white mr-2"
            fill="currentColor"
            viewBox="0 0 64 64"
        >
            <path d="M29.217 0h14.629v7.315H29.217V0Zm7.315 51.23c7.062-.017 12.785-5.737 12.802-12.799v-.002H36.532l1.155-12.744a8.035 8.035 0 0 0-1.18.002l.027-.002c-5.644.036-10.419 3.73-12.07 8.828l-.026.09H1.93v6.921h22.224c1.422 5.61 6.42 9.696 12.377 9.706Zm22.873-34.18-3.77 4.36-.003.003-.023-.025a25.509 25.509 0 0 1 6.46 17.004C62.07 52.534 50.605 64 36.462 64c-7.62 0-14.46-3.328-19.174-8.632h-8.44v-6.92h17.16v4.81l-.052-.036a17.96 17.96 0 0 0 10.558 3.412h.017l.049-.002c9.62-.55 17.251-8.527 17.251-18.285 0-9.759-7.632-17.735-17.3-18.288h-.002a17.74 17.74 0 0 0-10.52 3.46v4.164H8.848v-6.92h9.226l.013-.014c4.617-4.899 11.166-7.958 18.43-7.958 5.003 0 9.666 1.451 13.49 3.892l3.77-4.445 5.628 4.81Z" />
        </svg>